<svg width="19" height="22" viewBox="0 0 19 22" fill="none" xmlns="http://www.w3.org/2000/svg">
<path d="M18.1628 9C18.1628 16 9.08142 22 9.08142 22C9.08142 22 0 16 0 9C3.58901e-08 6.61305 0.956789 4.32387 2.65988 2.63604C4.36298 0.948211 6.67287 0 9.08142 0C11.49 0 13.7998 0.948211 15.5029 2.63604C17.206 4.32387 18.1628 6.61305 18.1628 9Z" fill="white"/>
<path d="M9.08146 12C10.7533 12 12.1086 10.6569 12.1086 9C12.1086 7.34315 10.7533 6 9.08146 6C7.40962 6 6.05432 7.34315 6.05432 9C6.05432 10.6569 7.40962 12 9.08146 12Z" fill="#284135" stroke="#284135" stroke-width="2" stroke-linecap="round" stroke-linejoin="round"/>
</svg>
