<svg width="20" height="20" viewBox="0 0 20 20" fill="none" xmlns="http://www.w3.org/2000/svg">
<path d="M19.1713 14.9738V17.9846C19.1724 18.2642 19.1174 18.5408 19.0098 18.7969C18.9023 19.053 18.7445 19.2829 18.5467 19.4719C18.3489 19.6608 18.1153 19.8047 17.861 19.8942C17.6067 19.9838 17.3372 20.017 17.0699 19.9919C14.1036 19.6563 11.2543 18.601 8.75091 16.9108C6.42183 15.3699 4.44717 13.3141 2.96717 10.8892C1.33806 8.27099 0.324236 5.29008 0.00782415 2.18795C-0.0162646 1.91042 0.0154152 1.63071 0.100846 1.36663C0.186277 1.10254 0.323588 0.859872 0.504036 0.654066C0.684484 0.448259 0.904116 0.283825 1.14895 0.171234C1.39378 0.058642 1.65845 0.000359723 1.9261 9.73016e-05H4.81797C5.28578 -0.00469635 5.73931 0.167778 6.09402 0.485372C6.44872 0.802966 6.68041 1.24401 6.74588 1.72629C6.86794 2.68982 7.0943 3.63587 7.42065 4.54641C7.55034 4.90563 7.57841 5.29602 7.50153 5.67133C7.42465 6.04665 7.24604 6.39115 6.98687 6.66402L5.76265 7.93859C7.13489 10.4512 9.13308 12.5315 11.5464 13.9602L12.7706 12.6856C13.0327 12.4158 13.3636 12.2298 13.7241 12.1498C14.0846 12.0698 14.4595 12.099 14.8046 12.234C15.6791 12.5738 16.5878 12.8095 17.5133 12.9365C17.9815 13.0053 18.4092 13.2509 18.7149 13.6265C19.0206 14.0021 19.183 14.4817 19.1713 14.9738Z" fill="white"/>
</svg>
